<svg xmlns="http://www.w3.org/2000/svg" xmlns:xlink="http://www.w3.org/1999/xlink" width="1020" height="407.36"><rect width="1020" height="407.36" rx="5" ry="5" class="a"/><svg y="0%" x="0%"><circle cx="20" cy="20" r="6" fill="#ff5f58"/><circle cx="40" cy="20" r="6" fill="#ffbd2e"/><circle cx="60" cy="20" r="6" fill="#18c132"/></svg><svg height="347.36" viewBox="0 0 98 34.736" width="980" x="15" xmlns="http://www.w3.org/2000/svg" xmlns:xlink="http://www.w3.org/1999/xlink" y="50"><style>@keyframes q{0%{transform:translateX(0)}.1%{transform:translateX(-98px)}2.9%{transform:translateX(-196px)}4.8%{transform:translateX(-294px)}6%{transform:translateX(-392px)}7.5%{transform:translateX(-490px)}10.1%{transform:translateX(-588px)}11.1%{transform:translateX(-686px)}11.7%{transform:translateX(-784px)}12.7%{transform:translateX(-882px)}15.3%{transform:translateX(-980px)}16.1%{transform:translateX(-1078px)}16.6%{transform:translateX(-1176px)}18%{transform:translateX(-1274px)}19.5%{transform:translateX(-1372px)}21.6%{transform:translateX(-1470px)}23.2%{transform:translateX(-1568px)}24.7%{transform:translateX(-1666px)}24.8%{transform:translateX(-1862px)}40.2%{transform:translateX(-2058px)}60%{transform:translateX(-2254px)}72.5%{transform:translateX(-2450px)}72.7%{transform:translateX(-2646px)}72.8%{transform:translateX(-2744px)}to{transform:translateX(-2842px)}}.a{fill:#282d35}.f{fill:#b9c0cb;white-space:pre}.g{fill:#66c2cd}.g,.h,.i{white-space:pre}.h{fill:#b9c0cb;font-weight:700}.i{fill:#6f7783}.j{fill:#66c2cd;text-decoration:underline}.j,.k,.l{white-space:pre}.k{fill:#6f7783;text-decoration:underline}.l{fill:#a8cc8c}</style><g font-family="Monaco,Consolas,Menlo,'Bitstream Vera Sans Mono','Powerline Symbols',monospace" font-size="1.67"><defs><symbol id="1"><text y="1.67" class="f">$</text></symbol><symbol id="2"><text y="1.67" class="f">$</text><text x="2.004" y="1.67" class="f">npm</text></symbol><symbol id="3"><text y="1.67" class="f">$</text><text x="2.004" y="1.67" class="f">npm</text><text x="6.012" y="1.67" class="f">run</text></symbol><symbol id="4"><text y="1.67" class="f">$</text><text x="2.004" y="1.67" class="f">npm</text><text x="6.012" y="1.67" class="f">run</text><text x="10.02" y="1.67" class="f">build</text></symbol><symbol id="5"><text y="1.67" class="f">&gt;</text><text x="2.004" y="1.67" class="f">resume-md@1.0.0</text><text x="18.036" y="1.67" class="f">build</text></symbol><symbol id="6"><text y="1.67" class="f">&gt;</text><text x="2.004" y="1.67" class="f">node</text><text x="7.014" y="1.67" class="f">src/index.js</text></symbol><symbol id="7"><text x="5.01" y="1.67" class="g">__</text><text x="8.016" y="1.67" class="g">__</text><text x="15.03" y="1.67" class="g">____</text><text x="68.136" y="1.67" class="g">__</text></symbol><symbol id="8"><text x="2.004" y="1.67" class="g">__/</text><text x="6.012" y="1.67" class="g">//</text><text x="9.018" y="1.67" class="g">/_</text><text x="14.028" y="1.67" class="g">/</text><text x="16.032" y="1.67" class="g">__</text><text x="19.038" y="1.67" class="g">\___</text><text x="25.05" y="1.67" class="g">_______</text><text x="34.068" y="1.67" class="g">______</text><text x="41.082" y="1.67" class="g">___</text><text x="46.092" y="1.67" class="g">___</text><text x="53.106" y="1.67" class="g">____</text><text x="58.116" y="1.67" class="g">___</text><text x="63.126" y="1.67" class="g">____/</text><text x="69.138" y="1.67" class="g">/</text></symbol><symbol id="9"><text x="1.002" y="1.67" class="g">/_</text><text x="5.01" y="1.67" class="g">_</text><text x="8.016" y="1.67" class="g">__/</text><text x="13.026" y="1.67" class="g">/</text><text x="15.03" y="1.67" class="g">/_/</text><text x="19.038" y="1.67" class="g">/</text><text x="21.042" y="1.67" class="g">_</text><text x="23.046" y="1.67" class="g">\/</text><text x="26.052" y="1.67" class="g">___/</text><text x="31.062" y="1.67" class="g">/</text><text x="33.066" y="1.67" class="g">/</text><text x="35.07" y="1.67" class="g">/</text><text x="37.074" y="1.67" class="g">__</text><text x="40.08" y="1.67" class="g">`__</text><text x="44.088" y="1.67" class="g">\/</text><text x="47.094" y="1.67" class="g">_</text><text x="49.098" y="1.67" class="g">\</text><text x="52.104" y="1.67" class="g">/</text><text x="54.108" y="1.67" class="g">__</text><text x="57.114" y="1.67" class="g">`__</text><text x="61.122" y="1.67" class="g">\/</text><text x="64.128" y="1.67" class="g">__</text><text x="68.136" y="1.67" class="g">/</text></symbol><symbol id="10"><text y="1.67" class="g">/_</text><text x="4.008" y="1.67" class="g">_</text><text x="7.014" y="1.67" class="g">__/</text><text x="12.024" y="1.67" class="g">/</text><text x="14.028" y="1.67" class="g">_,</text><text x="17.034" y="1.67" class="g">_/</text><text x="21.042" y="1.67" class="g">__(__</text><text x="28.056" y="1.67" class="g">)</text><text x="30.06" y="1.67" class="g">/_/</text><text x="34.068" y="1.67" class="g">/</text><text x="36.072" y="1.67" class="g">/</text><text x="38.076" y="1.67" class="g">/</text><text x="40.08" y="1.67" class="g">/</text><text x="42.084" y="1.67" class="g">/</text><text x="44.088" y="1.67" class="g">/</text><text x="47.094" y="1.67" class="g">__/</text><text x="51.102" y="1.67" class="g">/</text><text x="53.106" y="1.67" class="g">/</text><text x="55.11" y="1.67" class="g">/</text><text x="57.114" y="1.67" class="g">/</text><text x="59.118" y="1.67" class="g">/</text><text x="61.122" y="1.67" class="g">/</text><text x="63.126" y="1.67" class="g">/_/</text><text x="67.134" y="1.67" class="g">/</text></symbol><symbol id="11"><text x="1.002" y="1.67" class="g">/_//_/</text><text x="11.022" y="1.67" class="g">/_/</text><text x="15.03" y="1.67" class="g">|_|\___/____/\__,_/_/</text><text x="37.074" y="1.67" class="g">/_/</text><text x="41.082" y="1.67" class="g">/_/\___(_)_/</text><text x="54.108" y="1.67" class="g">/_/</text><text x="58.116" y="1.67" class="g">/_/\__,_/</text></symbol><symbol id="12"><text y="1.67" class="g">?</text><text x="2.004" y="1.67" class="h">Select</text><text x="9.018" y="1.67" class="h">template</text><text x="18.036" y="1.67" class="i">›</text><text x="20.04" y="1.67" class="i">-</text><text x="22.044" y="1.67" class="i">Use</text><text x="26.052" y="1.67" class="i">arrow-keys.</text><text x="38.076" y="1.67" class="i">Return</text><text x="45.09" y="1.67" class="i">to</text><text x="48.096" y="1.67" class="i">submit.</text></symbol><symbol id="13"><text y="1.67" class="g">❯</text><text x="4.008" y="1.67" class="j">Back</text><text x="9.018" y="1.67" class="j">to</text><text x="12.024" y="1.67" class="j">Markdown</text><text x="22.044" y="1.67" class="k">Looks</text><text x="28.056" y="1.67" class="k">like</text><text x="33.066" y="1.67" class="k">styled</text><text x="40.08" y="1.67" class="k">markdown</text><text x="49.098" y="1.67" class="k">text.</text><text x="55.11" y="1.67" class="k">Based</text><text x="61.122" y="1.67" class="k">on</text><text x="64.128" y="1.67" class="k">izs.me</text><text x="71.142" y="1.67" class="k">resume</text></symbol><symbol id="14"><text x="4.008" y="1.67" class="f">Raw</text><text x="8.016" y="1.67" class="f">template</text><text x="18.036" y="1.67" class="i">Template</text><text x="27.054" y="1.67" class="i">of</text><text x="30.06" y="1.67" class="i">templates</text><text x="40.08" y="1.67" class="i">without</text><text x="48.096" y="1.67" class="i">extra</text><text x="54.108" y="1.67" class="i">css</text></symbol><symbol id="15"><text y="1.67" class="l">✔</text><text x="2.004" y="1.67" class="h">Select</text><text x="9.018" y="1.67" class="h">template</text><text x="18.036" y="1.67" class="i">›</text><text x="20.04" y="1.67" class="f">Back</text><text x="25.05" y="1.67" class="f">to</text><text x="28.056" y="1.67" class="f">Markdown</text><text x="38.076" y="1.67" class="i">Looks</text><text x="44.088" y="1.67" class="i">like</text><text x="49.098" y="1.67" class="i">styled</text><text x="56.112" y="1.67" class="i">markdown</text><text x="65.13" y="1.67" class="i">text.</text><text x="71.142" y="1.67" class="i">Based</text><text x="77.154" y="1.67" class="i">on</text><text x="80.16" y="1.67" class="i">izs.me</text><text x="87.174" y="1.67" class="i">resume</text></symbol><symbol id="16"><text y="1.67" class="l">✔</text><text x="2.004" y="1.67" class="f">All</text><text x="6.012" y="1.67" class="f">done!</text><text x="12.024" y="1.67" class="f">🎉</text><text x="88.176" y="1.67" class="i">18:32:17</text></symbol><symbol id="17"><text y="1.67" class="g">ℹ</text><text x="2.004" y="1.67" class="f">Check</text><text x="8.016" y="1.67" class="f">out</text><text x="12.024" y="1.67" class="f">your</text><text x="17.034" y="1.67" class="f">resume</text><text x="24.048" y="1.67" class="f">in</text><text x="27.054" y="1.67" class="f">--&gt;</text><path fill="#a8cc8c" d="M31.062 0h18v2.171h-18z"/><text x="31.062" y="1.67" style="white-space:pre">dist/resume.html</text><text x="88.176" y="1.67" class="i">18:32:17</text></symbol><symbol id="a"><path fill="transparent" d="M0 0h98v16H0z"/></symbol><symbol id="b"><path fill="#6f7683" d="M0 0h1.102v2.171H0z"/></symbol></defs><path class="a" d="M0 0h98v34.736H0z"/><g style="animation-duration:15.593897s;animation-iteration-count:infinite;animation-name:q;animation-timing-function:steps(1,end)"><svg width="2940"><svg><use xlink:href="#a"/><use xlink:href="#b" x="-.004"/></svg><svg x="98"><use xlink:href="#a"/><use xlink:href="#b" x="1.996"/><use xlink:href="#1"/></svg><svg x="196"><use xlink:href="#a"/><use xlink:href="#b" x="2.996"/><text y="1.67" class="f">$</text><text x="2.004" y="1.67" class="f">n</text></svg><svg x="294"><use xlink:href="#a"/><use xlink:href="#b" x="3.996"/><text y="1.67" class="f">$</text><text x="2.004" y="1.67" class="f">np</text></svg><svg x="392"><use xlink:href="#a"/><use xlink:href="#b" x="4.996"/><use xlink:href="#2"/></svg><svg x="490"><use xlink:href="#a"/><use xlink:href="#b" x="5.996"/><use xlink:href="#2"/></svg><svg x="588"><use xlink:href="#a"/><use xlink:href="#b" x="6.996"/><text y="1.67" class="f">$</text><text x="2.004" y="1.67" class="f">npm</text><text x="6.012" y="1.67" class="f">r</text></svg><svg x="686"><use xlink:href="#a"/><use xlink:href="#b" x="7.996"/><text y="1.67" class="f">$</text><text x="2.004" y="1.67" class="f">npm</text><text x="6.012" y="1.67" class="f">ru</text></svg><svg x="784"><use xlink:href="#a"/><use xlink:href="#b" x="8.996"/><use xlink:href="#3"/></svg><svg x="882"><use xlink:href="#a"/><use xlink:href="#b" x="9.996"/><use xlink:href="#3"/></svg><svg x="980"><use xlink:href="#a"/><use xlink:href="#b" x="10.996"/><text y="1.67" class="f">$</text><text x="2.004" y="1.67" class="f">npm</text><text x="6.012" y="1.67" class="f">run</text><text x="10.02" y="1.67" class="f">b</text></svg><svg x="1078"><use xlink:href="#a"/><use xlink:href="#b" x="11.996"/><text y="1.67" class="f">$</text><text x="2.004" y="1.67" class="f">npm</text><text x="6.012" y="1.67" class="f">run</text><text x="10.02" y="1.67" class="f">bu</text></svg><svg x="1176"><use xlink:href="#a"/><use xlink:href="#b" x="12.996"/><text y="1.67" class="f">$</text><text x="2.004" y="1.67" class="f">npm</text><text x="6.012" y="1.67" class="f">run</text><text x="10.02" y="1.67" class="f">bui</text></svg><svg x="1274"><use xlink:href="#a"/><use xlink:href="#b" x="13.996"/><text y="1.67" class="f">$</text><text x="2.004" y="1.67" class="f">npm</text><text x="6.012" y="1.67" class="f">run</text><text x="10.02" y="1.67" class="f">buil</text></svg><svg x="1372"><use xlink:href="#a"/><use xlink:href="#b" x="14.996"/><use xlink:href="#4"/></svg><svg x="1470"><use xlink:href="#a"/><use xlink:href="#b" x="-.004" y="2.146"/><use xlink:href="#4"/></svg><svg x="1568"><use xlink:href="#a"/><use xlink:href="#b" x="-.004" y="10.83"/><use xlink:href="#4"/><use xlink:href="#5" y="4.342"/><use xlink:href="#6" y="6.513"/></svg><svg x="1666"><use xlink:href="#a"/><use xlink:href="#b" x="-.004" y="23.856"/><use xlink:href="#4"/><use xlink:href="#5" y="4.342"/><use xlink:href="#6" y="6.513"/><use xlink:href="#7" y="10.855"/><use xlink:href="#8" y="13.026"/><use xlink:href="#9" y="15.197"/><use xlink:href="#10" y="17.368"/><use xlink:href="#11" y="19.539"/></svg><svg x="1764"><use xlink:href="#a"/><use xlink:href="#4"/><use xlink:href="#5" y="4.342"/><use xlink:href="#6" y="6.513"/><use xlink:href="#7" y="10.855"/><use xlink:href="#8" y="13.026"/><use xlink:href="#9" y="15.197"/><use xlink:href="#10" y="17.368"/><use xlink:href="#11" y="19.539"/></svg><svg x="1862"><use xlink:href="#a"/><use xlink:href="#4"/><use xlink:href="#5" y="4.342"/><use xlink:href="#6" y="6.513"/><use xlink:href="#7" y="10.855"/><use xlink:href="#8" y="13.026"/><use xlink:href="#9" y="15.197"/><use xlink:href="#10" y="17.368"/><use xlink:href="#11" y="19.539"/><use xlink:href="#12" y="23.881"/><use xlink:href="#13" y="26.052"/><use xlink:href="#14" y="28.223"/></svg><svg x="1960"><use xlink:href="#a"/><use xlink:href="#4"/><use xlink:href="#5" y="4.342"/><use xlink:href="#6" y="6.513"/><use xlink:href="#7" y="10.855"/><use xlink:href="#8" y="13.026"/><use xlink:href="#9" y="15.197"/><use xlink:href="#10" y="17.368"/><use xlink:href="#11" y="19.539"/></svg><svg x="2058"><use xlink:href="#a"/><use xlink:href="#4"/><use xlink:href="#5" y="4.342"/><use xlink:href="#6" y="6.513"/><use xlink:href="#7" y="10.855"/><use xlink:href="#8" y="13.026"/><use xlink:href="#9" y="15.197"/><use xlink:href="#10" y="17.368"/><use xlink:href="#11" y="19.539"/><use xlink:href="#12" y="23.881"/><text x="4.008" y="27.722" class="f">Back</text><text x="9.018" y="27.722" class="f">to</text><text x="12.024" y="27.722" class="f">Markdown</text><text x="22.044" y="27.722" class="i">Looks</text><text x="28.056" y="27.722" class="i">like</text><text x="33.066" y="27.722" class="i">styled</text><text x="40.08" y="27.722" class="i">markdown</text><text x="49.098" y="27.722" class="i">text.</text><text x="55.11" y="27.722" class="i">Based</text><text x="61.122" y="27.722" class="i">on</text><text x="64.128" y="27.722" class="i">izs.me</text><text x="71.142" y="27.722" class="i">resume</text><text y="29.893" class="g">❯</text><text x="4.008" y="29.893" class="j">Raw</text><text x="8.016" y="29.893" class="j">template</text><text x="18.036" y="29.893" class="k">Template</text><text x="27.054" y="29.893" class="k">of</text><text x="30.06" y="29.893" class="k">templates</text><text x="40.08" y="29.893" class="k">without</text><text x="48.096" y="29.893" class="k">extra</text><text x="54.108" y="29.893" class="k">css</text></svg><svg x="2156"><use xlink:href="#a"/><use xlink:href="#4"/><use xlink:href="#5" y="4.342"/><use xlink:href="#6" y="6.513"/><use xlink:href="#7" y="10.855"/><use xlink:href="#8" y="13.026"/><use xlink:href="#9" y="15.197"/><use xlink:href="#10" y="17.368"/><use xlink:href="#11" y="19.539"/></svg><svg x="2254"><use xlink:href="#a"/><use xlink:href="#4"/><use xlink:href="#5" y="4.342"/><use xlink:href="#6" y="6.513"/><use xlink:href="#7" y="10.855"/><use xlink:href="#8" y="13.026"/><use xlink:href="#9" y="15.197"/><use xlink:href="#10" y="17.368"/><use xlink:href="#11" y="19.539"/><use xlink:href="#12" y="23.881"/><use xlink:href="#13" y="26.052"/><use xlink:href="#14" y="28.223"/></svg><svg x="2352"><use xlink:href="#a"/><use xlink:href="#4"/><use xlink:href="#5" y="4.342"/><use xlink:href="#6" y="6.513"/><use xlink:href="#7" y="10.855"/><use xlink:href="#8" y="13.026"/><use xlink:href="#9" y="15.197"/><use xlink:href="#10" y="17.368"/><use xlink:href="#11" y="19.539"/></svg><svg x="2450"><use xlink:href="#a"/><use xlink:href="#b" x="-.004" y="26.027"/><use xlink:href="#4"/><use xlink:href="#5" y="4.342"/><use xlink:href="#6" y="6.513"/><use xlink:href="#7" y="10.855"/><use xlink:href="#8" y="13.026"/><use xlink:href="#9" y="15.197"/><use xlink:href="#10" y="17.368"/><use xlink:href="#11" y="19.539"/><use xlink:href="#15" y="23.881"/></svg><svg x="2548"><use xlink:href="#a"/><use xlink:href="#b" x="-.004" y="28.198"/><use xlink:href="#4"/><use xlink:href="#5" y="4.342"/><use xlink:href="#6" y="6.513"/><use xlink:href="#7" y="10.855"/><use xlink:href="#8" y="13.026"/><use xlink:href="#9" y="15.197"/><use xlink:href="#10" y="17.368"/><use xlink:href="#11" y="19.539"/><use xlink:href="#15" y="23.881"/><use xlink:href="#16" y="26.052"/></svg><svg x="2646"><use xlink:href="#a"/><use xlink:href="#b" x="-.004" y="30.369"/><use xlink:href="#4"/><use xlink:href="#5" y="4.342"/><use xlink:href="#6" y="6.513"/><use xlink:href="#7" y="10.855"/><use xlink:href="#8" y="13.026"/><use xlink:href="#9" y="15.197"/><use xlink:href="#10" y="17.368"/><use xlink:href="#11" y="19.539"/><use xlink:href="#15" y="23.881"/><use xlink:href="#16" y="26.052"/><use xlink:href="#17" y="28.223"/></svg><svg x="2744"><use xlink:href="#a"/><use xlink:href="#b" x="1.996" y="30.369"/><use xlink:href="#4"/><use xlink:href="#5" y="4.342"/><use xlink:href="#6" y="6.513"/><use xlink:href="#7" y="10.855"/><use xlink:href="#8" y="13.026"/><use xlink:href="#9" y="15.197"/><use xlink:href="#10" y="17.368"/><use xlink:href="#11" y="19.539"/><use xlink:href="#15" y="23.881"/><use xlink:href="#16" y="26.052"/><use xlink:href="#17" y="28.223"/><use xlink:href="#1" y="30.394"/></svg><svg x="2842"><use xlink:href="#a"/><use xlink:href="#b" x="-.004" y="32.54"/><use xlink:href="#4"/><use xlink:href="#5" y="4.342"/><use xlink:href="#6" y="6.513"/><use xlink:href="#7" y="10.855"/><use xlink:href="#8" y="13.026"/><use xlink:href="#9" y="15.197"/><use xlink:href="#10" y="17.368"/><use xlink:href="#11" y="19.539"/><use xlink:href="#15" y="23.881"/><use xlink:href="#16" y="26.052"/><use xlink:href="#17" y="28.223"/><use xlink:href="#1" y="30.394"/></svg></svg></g></g></svg></svg>